<?xml version="1.0" standalone="no"?>
<!DOCTYPE svg PUBLIC "-//W3C//DTD SVG 20010904//EN"
 "http://www.w3.org/TR/2001/REC-SVG-20010904/DTD/svg10.dtd">
<svg version="1.0" xmlns="http://www.w3.org/2000/svg"
 width="1024.000000pt" height="1024.000000pt" viewBox="0 0 1024.000000 1024.000000"
 preserveAspectRatio="xMidYMid meet">

<g transform="translate(0.000000,1024.000000) scale(0.100000,-0.100000)"
fill="#000000" stroke="none">
<path d="M4050 8620 c-913 -6 -949 -7 -1065 -28 -412 -74 -688 -210 -923 -456
-179 -188 -300 -410 -372 -681 -63 -240 -63 -237 -67 -1287 l-4 -958 323 -1
c178 -1 380 -2 449 -4 82 -2 135 1 149 9 15 7 33 39 55 96 126 323 181 455
199 471 25 24 77 24 105 2 16 -13 50 -111 131 -378 164 -536 173 -565 177
-561 2 2 22 105 43 227 21 123 47 274 59 334 11 61 36 207 56 325 20 118 46
274 60 345 13 72 47 265 75 430 28 165 73 426 100 580 27 154 57 323 66 375 9
53 23 103 32 113 22 25 70 18 93 -13 20 -28 96 -465 279 -1605 55 -345 241
-1626 255 -1760 13 -127 14 -128 45 -45 160 434 549 1110 899 1563 42 54 96
135 121 181 25 45 60 107 79 137 44 71 291 417 431 604 60 81 110 152 110 156
0 20 -150 31 -260 19 -47 -5 -110 -17 -140 -27 -49 -16 -60 -25 -96 -79 -76
-114 -128 -261 -149 -426 -13 -98 -95 -139 -156 -79 -26 26 -29 37 -29 89 0
149 63 405 139 566 64 137 153 195 383 251 253 62 493 60 657 -5 28 -11 56
-20 61 -20 5 0 21 16 36 36 l27 35 -16 53 c-25 78 -22 180 7 241 43 93 153
165 252 165 110 0 234 -94 268 -203 62 -198 -76 -397 -276 -397 -59 0 -69 -3
-82 -22 -27 -42 -30 -92 -8 -139 28 -64 133 -198 214 -274 67 -63 72 -66 107
-60 49 9 186 81 226 119 23 22 34 44 39 76 9 55 27 85 66 105 26 13 34 14 62
2 42 -18 58 -37 69 -84 18 -82 -8 -120 -242 -354 -81 -81 -195 -149 -251 -149
-72 0 -214 74 -355 184 l-68 53 -174 -166 c-197 -187 -317 -322 -298 -332 6
-3 43 -9 81 -13 189 -19 454 -114 590 -213 57 -41 85 -97 86 -168 0 -77 -16
-119 -79 -203 -122 -161 -520 -548 -602 -585 -38 -17 -42 -17 -65 -2 -34 22
-48 57 -40 97 3 19 50 103 104 186 53 83 116 186 140 230 24 44 73 112 109
151 42 46 60 73 51 75 -31 11 -363 23 -470 17 l-116 -6 -84 -57 c-229 -156
-565 -513 -774 -823 -352 -522 -530 -1022 -686 -1924 l-23 -134 -7 54 c-4 30
-46 392 -92 804 -90 791 -143 1243 -151 1285 -3 14 -30 221 -60 460 -89 704
-184 1370 -195 1370 -3 0 -16 -60 -28 -132 -12 -73 -42 -245 -67 -383 -25
-137 -61 -344 -80 -460 -20 -115 -58 -336 -85 -490 -27 -154 -72 -422 -100
-595 -65 -399 -67 -407 -93 -425 -56 -39 -106 -5 -130 90 -85 337 -318 1138
-328 1127 -4 -4 -28 -59 -54 -122 -26 -63 -54 -123 -63 -134 -42 -46 -41 -46
-582 -46 l-511 0 4 -932 c4 -883 5 -939 24 -1048 55 -311 138 -531 275 -731
207 -303 546 -528 918 -610 247 -53 216 -52 1255 -57 534 -2 1120 -1 1303 3
301 7 331 9 320 23 -10 12 -10 14 -1 8 9 -5 11 -2 7 8 -3 9 -9 16 -13 16 -4 0
-7 9 -8 20 -1 11 1 20 5 20 4 0 8 12 9 27 0 15 6 29 12 31 6 2 8 8 5 13 -10
17 -12 59 -2 65 4 3 6 9 4 13 -3 4 -1 24 4 44 4 20 4 35 0 32 -5 -3 -11 -1
-15 5 -6 9 8 14 28 11 5 -1 7 13 6 31 -2 22 1 32 9 30 7 -1 11 4 10 10 -2 7 4
12 12 10 12 -3 13 -1 3 9 -15 15 -17 33 -4 24 6 -3 9 4 8 15 -1 11 -5 20 -9
20 -4 0 -8 4 -8 9 0 5 8 8 17 7 13 -1 17 7 18 31 0 22 7 38 23 48 12 9 20 21
17 26 -4 5 -1 9 5 9 15 0 41 26 33 34 -4 3 0 6 9 6 8 0 20 12 26 26 7 15 17
22 24 18 7 -5 8 -3 4 5 -5 7 -1 20 8 30 9 10 18 32 19 49 1 16 5 28 8 26 10
-6 33 25 25 33 -3 3 1 17 9 30 9 13 11 22 6 21 -8 -3 -11 2 -11 17 0 3 9 1 20
-5 11 -6 20 -7 19 -3 -3 21 2 44 9 39 4 -2 9 5 9 17 2 17 0 18 -7 7 -7 -11 -9
-10 -7 7 0 12 4 21 7 21 19 -2 28 5 38 28 7 14 8 23 3 20 -5 -4 -8 2 -7 11 2
10 9 18 17 18 8 1 13 6 12 13 -2 7 4 12 12 12 8 0 15 5 15 11 0 5 -4 8 -8 5
-5 -3 -9 1 -9 9 0 10 5 11 19 4 12 -6 18 -6 18 1 0 5 -4 10 -10 10 -5 0 -10 5
-10 12 0 6 3 9 6 5 7 -7 34 17 34 30 0 5 11 19 25 31 14 13 23 27 20 32 -6 9
8 14 28 11 5 -1 6 3 2 9 -3 5 -1 10 5 10 6 0 9 4 6 8 -3 5 6 19 20 31 14 12
22 27 18 33 -4 7 -3 8 4 4 7 -4 12 -1 12 10 0 13 3 14 15 4 12 -10 14 -8 10 7
-2 12 3 20 11 21 8 1 21 3 29 4 8 1 13 3 10 6 -6 6 21 32 33 32 5 0 26 18 47
41 20 23 42 42 48 43 44 10 66 20 61 28 -4 6 3 5 15 -1 15 -8 21 -9 21 -1 0 6
5 8 12 4 7 -5 9 -2 5 8 -3 9 2 23 12 33 17 14 20 14 34 1 9 -10 17 -12 19 -5
2 5 12 11 23 13 11 2 19 10 19 20 -1 8 2 13 7 10 5 -3 9 3 10 13 0 10 3 13 6
6 7 -18 21 -16 41 4 16 16 16 16 0 10 -10 -3 -20 -2 -23 3 -4 6 5 10 19 10 14
0 28 5 31 10 4 6 11 8 16 5 5 -4 9 -1 9 5 0 6 5 8 10 5 6 -4 9 -1 8 7 -2 7 2
12 8 11 5 -1 21 8 35 20 14 12 18 18 9 12 -12 -7 -13 -7 -3 5 7 8 29 15 49 16
20 0 40 7 45 15 7 12 9 12 9 0 0 -11 5 -10 20 4 11 10 20 14 20 9 0 -5 11 -9
25 -9 14 0 25 4 25 8 0 5 6 5 13 0 27 -17 102 7 144 46 12 12 26 20 30 19 4 0
22 4 38 11 17 7 42 15 58 18 38 6 78 28 69 38 -4 5 1 5 10 2 10 -3 20 -2 24 4
3 6 11 8 17 6 7 -2 18 2 25 9 7 7 20 10 29 7 12 -5 14 -3 8 7 -5 9 -4 11 3 6
19 -12 53 -16 47 -5 -4 5 1 9 9 9 8 0 21 6 28 13 7 6 20 12 28 12 8 0 14 5 13
12 -2 7 4 10 12 7 8 -4 15 -1 15 5 0 17 160 13 177 -5 14 -14 38 -10 29 5 -3
4 4 8 15 8 11 1 17 -3 13 -9 -4 -6 2 -6 15 1 11 7 21 8 21 4 0 -4 5 0 11 10
11 19 69 24 69 5 0 -6 7 -4 18 5 10 10 22 14 27 10 4 -5 5 -2 1 5 -5 8 0 12
13 12 10 0 22 -6 24 -12 4 -10 6 -10 6 0 1 10 6 10 22 1 15 -8 19 -8 15 0 -4
6 -3 11 3 11 5 0 13 -5 17 -11 4 -8 9 -7 15 2 6 9 12 10 17 4 4 -5 13 -11 21
-13 12 -3 12 0 2 11 -10 13 -6 14 29 11 26 -3 39 0 35 6 -3 5 0 7 8 4 8 -3 18
0 22 5 3 6 11 8 17 5 6 -4 8 -2 5 3 -7 10 48 42 82 48 9 1 15 7 14 12 -3 14
40 14 49 0 5 -8 8 -6 8 6 0 10 5 15 10 12 6 -3 11 0 12 7 1 7 5 -30 8 -82 3
-52 7 659 8 1580 1 1082 -2 1716 -8 1790 -45 500 -235 896 -552 1153 -248 200
-501 300 -898 353 -110 15 -249 17 -1145 18 -561 1 -1445 -1 -1965 -4z m870
-2040 c19 -27 27 -30 76 -30 91 0 60 -17 -43 -23 -77 -5 -100 -4 -112 7 -12
12 -10 19 8 45 28 39 44 39 71 1z m74 -777 c14 -14 29 -37 32 -50 5 -18 15
-25 47 -30 l42 -6 -65 -14 c-65 -14 -115 -13 -180 4 -31 8 -33 10 -12 15 16 5
22 14 22 34 0 34 36 74 65 74 12 0 34 -12 49 -27z m2692 -292 c-3 -5 4 -12 17
-15 22 -6 22 -7 3 -21 -23 -17 -35 -18 -56 -5 -12 7 -12 12 4 29 19 21 42 30
32 12z m452 -240 c49 -26 100 -74 112 -106 7 -19 7 -47 -1 -92 -13 -75 -49
-120 -121 -153 -102 -46 -205 -6 -281 110 l-23 35 -354 7 c-195 4 -371 5 -390
2 -29 -5 -66 -38 -231 -207 -108 -111 -208 -217 -223 -234 l-28 -33 286 0
c157 0 285 3 285 8 -6 34 42 89 99 113 91 39 195 13 269 -68 89 -97 52 -265
-77 -345 -28 -17 -115 -38 -159 -38 -16 0 -34 -6 -41 -14 -6 -8 -19 -12 -27
-9 -11 4 -14 2 -9 -5 4 -7 2 -12 -4 -12 -7 0 -8 -6 -2 -16 20 -36 -32 -170
-76 -193 -10 -5 -46 -9 -79 -7 -68 3 -100 21 -172 98 l-38 41 -585 5 c-542 4
-587 3 -621 -13 -21 -10 -47 -32 -59 -49 -12 -17 -80 -103 -152 -191 -71 -88
-154 -192 -185 -231 -92 -116 -68 -109 -356 -109 l-250 0 0 25 0 25 226 5
c209 5 229 7 249 25 12 11 117 138 232 283 153 192 220 268 247 282 36 18 70
19 677 22 l640 3 39 33 c28 23 50 32 75 32 19 0 53 5 75 12 22 6 43 11 48 10
15 -4 5 35 -26 98 l-32 65 -849 8 -849 9 -28 -29 c-70 -71 -429 -530 -434
-555 -4 -16 -18 -42 -32 -58 -34 -41 -94 -43 -119 -4 -33 50 -14 108 45 137
14 7 113 122 221 257 108 135 217 266 242 291 73 74 67 73 644 66 l503 -7 33
33 c18 17 137 140 263 271 156 162 243 245 270 257 37 17 76 19 467 19 l427 0
21 38 c38 67 142 92 218 53z m-3483 -227 c37 -15 -14 -24 -135 -24 -129 0
-174 6 -164 21 6 10 273 12 299 3z m2925 -94 c0 -5 -13 -10 -30 -10 -16 0 -30
5 -30 10 0 6 14 10 30 10 17 0 30 -4 30 -10z m-1124 -931 c49 -15 119 -88 133
-138 4 -17 5 -110 0 -137 -1 -8 -18 -33 -38 -54 -40 -43 -124 -77 -180 -74
-38 3 -111 32 -111 46 0 4 -6 8 -14 8 -8 0 -28 22 -45 48 -59 93 -52 90 -260
93 l-184 3 -26 -30 c-30 -35 -290 -365 -338 -429 -18 -24 -51 -52 -78 -65 -46
-22 -46 -22 -372 -14 -292 8 -327 11 -337 26 -26 41 0 45 343 52 270 5 327 9
341 21 10 9 89 109 176 222 87 114 177 226 199 249 56 59 92 66 302 62 l175
-3 36 42 c72 81 171 107 278 72z m-2513 -579 c-4 -3 -33 -4 -63 -1 l-55 5 50
6 c53 6 82 2 68 -10z m3131 -4 c-3 -9 -12 -12 -22 -9 -15 6 -9 11 25 22 1 1 0
-5 -3 -13z m-340 -195 c3 -5 -1 -11 -9 -15 -8 -3 -17 0 -21 6 -4 7 -3 8 4 4 7
-4 12 -2 12 3 0 13 7 14 14 2z"/>
</g>
</svg>
